<?xml version="1.0" encoding="UTF-8"?>
<!DOCTYPE svg PUBLIC "-//W3C//DTD SVG 1.1//EN" "http://www.w3.org/Graphics/SVG/1.1/DTD/svg11.dtd">
<!-- Creator: CorelDRAW 2020 (64-Bit) -->
<svg xmlns="http://www.w3.org/2000/svg" xml:space="preserve" width="500px" height="78px" version="1.1" shape-rendering="geometricPrecision" text-rendering="geometricPrecision" image-rendering="optimizeQuality" fill-rule="evenodd" clip-rule="evenodd"
viewBox="0 0 500 77.81"
 xmlns:xlink="http://www.w3.org/1999/xlink"
 xmlns:xodm="http://www.corel.com/coreldraw/odm/2003">
 <g id="Layer_x0020_1">
  <metadata id="CorelCorpID_0Corel-Layer"/>
  <path fill="black" fill-rule="nonzero" d="M90.93 56.78c-0.68,2.79 -6.03,8.75 -9.19,8.75 -0.47,0 -0.89,-0.19 -1.29,-0.47 -0.91,-0.84 -0.27,-5.03 1.08,-10.61 0.84,-3.44 1.9,-7.45 3.05,-11.45 1.45,-5.21 2.97,-10.33 3.94,-14.33 0.49,-2.05 0.83,-3.82 0.93,-5.03 0.46,-4.19 -0.65,-8.84 -2.93,-12.1 -1.65,-2.42 -3.99,-3.91 -6.69,-3.91 -1.49,0 -2.97,0.38 -4.71,1.4 -6,3.63 -19.85,34.72 -20.51,36.3 0.07,-0.28 4.38,-19.27 4.45,-27.65 0.11,-4.65 -2.39,-8.93 -5.62,-11.35 -1.74,-1.3 -3.7,-2.05 -5.65,-2.05 -1.49,0 -3,0.47 -4.36,1.49 -3.64,2.7 -8.18,10.71 -12.3,19.27 -5.42,11.26 -8.96,20.47 -11.53,26.9 1.58,-5.03 5.27,-16.01 7.63,-25.79 0.7,-2.88 1.24,-5.49 1.41,-7.35 0.78,-7.44 -5.31,-11.91 -10.89,-11.91 -0.66,0 -1.33,0.09 -2,0.18 -5.97,1.21 -13.95,7.26 -15.75,9.68 0.3,1.87 1.03,3.45 3.45,3.45 0.56,0 1.23,-0.1 2.02,-0.28 4.67,-1.21 8.43,-4.84 10.76,-4.84 0.37,0 0.72,0.09 1.03,0.37 0.46,0.37 0.2,2.23 -0.5,5.12 -1.15,4.75 -3.53,12.29 -5.86,20.01 -1.79,5.86 -3.52,11.82 -4.73,16.85 -0.99,4.09 -1.64,7.54 -1.6,9.68 0.05,3.63 1.63,6.33 3.72,8.09 2.08,1.77 4.56,2.7 6.51,2.7 0.56,0 1.05,-0.09 1.44,-0.18 0.97,-4 7.8,-20.29 14.8,-35.37 6.79,-14.61 13.83,-28.29 15.97,-28.29 2.51,0 -0.68,13.96 -3.68,26.34 -3.45,14.24 -4.93,20.38 -5.1,22.98 -0.29,3.91 1.06,6.8 3.24,8.57 1.85,1.58 4.37,2.32 6.79,2.32 0.74,0 1.39,0 2.09,-0.18 0.02,-0.47 0.18,-1.12 0.35,-1.86 1.45,-5.96 7.22,-19.83 13.17,-32.11 5.86,-12.29 11.8,-22.99 13.67,-22.99 1.58,0 -0.44,9.49 -0.64,10.33 -0.88,3.63 -5.88,21.59 -6.4,23.73 -1.33,5.49 -2.22,10.33 -1.99,13.22 0.52,6.7 5.29,9.31 9.57,9.31 6.24,0 14,-6.71 15.42,-12.57 0.59,-2.42 -0.52,-4.37 -2.57,-4.37z"/>
  <path id="1" fill="black" fill-rule="nonzero" d="M138.39 49.89c1.87,-1.96 2.85,-3.72 3.19,-5.12 0.7,-2.89 -1.11,-4.65 -2.25,-5.31 -1.05,2.05 -2.67,3.73 -4.57,5.03 -2.1,1.4 -4.63,2.23 -7.19,2.79 0.78,-4 0.96,-7.82 0.68,-10.89 -0.36,-4.65 -2.67,-8.19 -6.94,-9.77 -1.8,-0.65 -3.75,-1.02 -5.8,-1.02 -1.77,0 -3.61,0.28 -5.35,0.93 -1.65,0.28 -3.5,1.02 -5.58,2.32 -7.14,4.47 -10.89,14.62 -12.27,20.29 -1.35,5.59 -1.51,11.27 -0.13,15.92 1.84,5.86 7.91,8.47 13.78,8.47 2.69,0 5.44,-0.56 7.57,-1.68 5.12,-2.7 9.19,-9.12 11.73,-16.19 5.12,-0.75 10.04,-2.61 13.13,-5.77zm-26.17 -4.56c-1.76,-1.96 -2.67,-5.12 -2.08,-7.54 0.4,-1.68 1.6,-3.54 3.25,-4.19 0.51,-0.19 0.88,-0.19 1.34,-0.19 2.98,0 4.52,3.26 4.79,5.59 0.18,1.95 -0.03,4.37 -0.64,6.89 -0.16,0.65 -0.38,1.21 -0.54,1.86 -2.89,-0.37 -5.11,-1.21 -6.12,-2.42zm2.99 10.33c-1.32,2.79 -5.36,10.61 -8.52,10.61 -1.68,0 -2.67,-2.05 -2.88,-5.4 -0.21,-2.6 0.11,-5.86 0.9,-9.49 1.22,1.11 2.85,2.04 4.72,2.79 1.8,0.65 3.71,1.21 5.78,1.49z"/>
  <path id="2" fill="black" fill-rule="nonzero" d="M187.86 73.53c4.09,-1.12 9.73,-5.58 12.16,-10.24 0.48,-0.84 0.75,-1.58 0.91,-2.23 0.7,-2.89 -0.87,-4.47 -2.36,-4.47 -0.43,1.02 -1.93,3.35 -3.66,5.49 -1.86,2.33 -4.1,4.28 -5.78,4.28 -0.47,0 -0.82,-0.09 -1.21,-0.37 -0.8,-0.56 -0.33,-3.26 0.55,-6.89 0.67,-2.79 1.55,-6.05 2.53,-9.3 0.88,-2.89 1.7,-5.87 2.28,-8.29 0.54,-2.23 0.9,-4.09 0.8,-5.21 -0.2,-3.82 -1.96,-6.14 -4.18,-7.35 -1.47,-0.84 -3.15,-1.21 -4.73,-1.21 -1.58,0 -3.16,0.37 -4.16,1.02 -2.18,1.3 -4.46,3.82 -6.48,6.79 -2.33,3.45 -4.83,8.01 -7.12,12.48 0.21,-0.47 0.46,-1.49 0.77,-2.79 0.68,-2.8 1.41,-6.99 1.01,-10.34 -0.45,-3.91 -3.89,-6.98 -8.08,-6.98 -1.77,0 -3.58,0.56 -5.45,1.77 -4.8,3.26 -11.35,18.06 -12.4,20.48 1.02,-3.07 2.04,-6.15 2.78,-9.22 0.75,-3.07 1.21,-6.14 0.87,-7.82 -0.7,-2.88 -3.2,-4.46 -6.08,-4.46 -1.03,0 -2.19,0.18 -3.23,0.65 0.08,1.58 -0.41,4.37 -1.27,7.91 -0.99,4.1 -2.41,9.21 -3.82,13.87 -1.38,4.56 -2.63,8.93 -3.35,11.91 -0.29,1.21 -0.54,2.24 -0.6,2.89 -0.6,4.37 3.87,6.7 7.22,6.7 1.02,0 1.91,-0.19 2.58,-0.65 -0.03,-0.28 -0.01,-0.75 0.15,-1.4 0.74,-3.07 3.74,-9.68 7.2,-16.29 4.67,-8.93 10.14,-17.68 12.19,-17.68 1.39,0 0.87,3.72 -0.28,8.47 -0.66,2.7 -1.59,5.77 -2.38,8.65 -1.31,4.66 -2.79,9.22 -3.44,11.92 -0.18,0.74 -0.31,1.3 -0.33,1.77 -0.42,3.25 2.97,5.02 6.23,5.02 1.3,0 2.67,-0.28 3.76,-0.93 -0.05,-0.18 0.04,-0.56 0.13,-0.93 0.65,-2.7 3.92,-9.68 7.66,-16.66 4.72,-8.75 10.26,-17.4 12.22,-17.4 1.39,0 1.04,2.6 0.28,5.77 -0.9,3.72 -2.56,8.65 -3.71,13.4 -0.79,3.26 -1.28,6.42 -1.23,8.93 0.06,5.5 4.38,9.22 8.94,9.22 0.74,0 1.42,-0.09 2.11,-0.28z"/>
  <path id="3" fill="black" fill-rule="nonzero" d="M224.78 45.61c2.66,-1.77 6.33,-5.03 7.37,-9.31 0.33,-1.4 0.34,-2.98 0,-4.65 -0.84,-3.82 -5.45,-6.71 -11.03,-6.71 -4.66,0 -9.97,1.96 -14.63,6.99 -4.41,4.74 -7.58,11.35 -9.14,17.77 -1.53,6.33 -1.46,12.57 0.81,16.66 2.9,5.31 8.5,7.17 13.81,7.17 2.51,0 5.04,-0.47 7.06,-1.12 7.08,-2.32 15.08,-8.84 16.63,-15.26 0.66,-2.7 -0.41,-4.84 -2.36,-4.84 -0.19,0 -0.4,0.09 -0.58,0.09 -1.58,4.19 -4.76,8.1 -8.34,10.61 -2.71,1.96 -5.58,3.07 -8.1,3.07 -2.23,0 -4.24,-0.93 -5.6,-2.97 -1.91,-2.89 -1.93,-7.82 -0.78,-12.94 4.79,-0.19 10.2,-1.4 14.88,-4.56zm-3.47 -14.52c1.49,0 2.22,1.58 1.73,3.63 -0.73,2.98 -2.85,5.58 -5.44,7.07 -2.36,1.3 -4.1,1.96 -5.98,2.42 1.09,-2.98 2.39,-5.68 3.77,-7.91 1.82,-2.89 3.9,-4.93 5.92,-5.21z"/>
  <path id="4" fill="black" fill-rule="nonzero" d="M274.73 56.87c-0.68,2.05 -2.48,4.47 -4.44,6.42 -1.82,1.77 -3.72,3.07 -5.12,3.07 -0.37,0 -0.7,-0.18 -1.03,-0.37 -0.63,-0.46 -0.43,-2.42 0.22,-5.12 0.59,-2.42 1.61,-5.49 2.56,-8.65 0.11,-0.47 0.32,-0.94 0.43,-1.4 1.16,-3.63 2.25,-7.35 2.99,-10.42 0.56,-2.33 0.96,-4.38 0.89,-5.59 -0.32,-4.09 -4.39,-7.63 -9.05,-7.63 -1.67,0 -3.46,0.46 -5.22,1.58 -4.52,2.89 -10.87,14.52 -13.82,20.57 0.84,-2.33 2.28,-5.96 3.34,-10.33 0.56,-2.33 0.91,-4.56 0.69,-5.96 -0.51,-3.25 -3.3,-5.58 -6.37,-5.58 -0.74,0 -1.53,0.18 -2.35,0.46 0.06,1.31 -0.3,3.17 -0.88,5.59 -0.9,3.72 -2.35,8.56 -3.85,13.21 -0.09,0.38 -0.28,0.75 -0.37,1.12 -1.43,4.38 -2.74,8.66 -3.53,11.91 -0.31,1.31 -0.49,2.42 -0.62,3.36 -0.39,3.53 0.79,6.32 2.43,8 1.2,1.21 2.53,1.86 3.65,1.86 0.84,0 1.48,-0.37 1.71,-1.3 0.65,-2.7 4.02,-9.68 8.08,-16.85 5.37,-9.49 11.62,-19.17 13.76,-19.17 1.02,0 1.01,1.58 0.41,4.09 -0.68,2.8 -2.11,6.8 -3.36,10.8 -0.71,2.14 -1.34,4.37 -1.86,6.52 -0.7,2.88 -1.19,5.67 -0.96,7.81 0.65,8.1 7.05,8.94 9.66,8.94 3.91,0 11.12,-5.59 13.74,-10.24 0.48,-0.84 0.78,-1.67 0.93,-2.33 0.7,-2.88 -1.17,-4.37 -2.66,-4.37z"/>
  <path id="5" fill="black" fill-rule="nonzero" d="M283.52 73.62c5.68,0 11.56,-3.16 15.49,-9.4 0.64,-1.11 1.08,-2.14 1.28,-2.98 0.74,-3.07 -1.11,-4.65 -2.6,-4.65 -0.91,2.61 -2.75,5.21 -4.8,7.17 -1.94,1.86 -4.07,2.97 -5.75,2.97 -0.74,0 -1.35,-0.18 -1.89,-0.65 -1.15,-1.02 -0.83,-5.02 0.61,-10.98 1.42,-5.86 3.6,-12.19 5.65,-17.96 0.57,-1.59 1.46,-3.35 1.82,-4.84 1.87,0 3.59,-0.19 4.93,-0.37 2.21,-0.28 3.7,-1.03 4.57,-1.96 0.51,-0.56 0.83,-1.12 0.99,-1.77 0.2,-0.83 0.12,-1.67 -0.04,-2.51 -1.56,0.28 -4.82,0.28 -8.45,0.28 0.43,-1.4 0.75,-2.7 1.04,-3.91 0.56,-2.33 0.9,-4.1 0.82,-4.93 -0.17,-3.91 -1.14,-6.43 -2.78,-7.73 -0.94,-0.74 -2.04,-1.21 -3.15,-1.21 -1.03,0 -2.16,0.47 -2.83,1.3 -1.34,1.68 -1.95,3.45 -2.47,5.59 -0.36,1.49 -0.67,3.16 -1.17,5.21 -0.4,1.68 -0.85,3.54 -1.49,5.77 -2.25,0.09 -4.16,0.28 -5.37,0.65 -1,0.28 -1.57,1.12 -1.8,2.05 -0.11,0.47 -0.11,0.84 -0.13,1.3 -0.08,1.12 0.07,2.05 0.07,2.05 0,0 2.39,0.09 5.54,0.19 -1.75,6.05 -3.37,12 -4.73,17.22 -0.59,2.04 -1.04,3.9 -1.47,5.67 -1.08,4.47 -1.68,7.73 -1.5,9.31 0.48,4.93 2.63,9.12 9.61,9.12z"/>
  <path id="6" fill="black" fill-rule="nonzero" d="M339.66 20.48c1.06,-1.31 1.93,-2.98 2.38,-4.84 0.95,-3.91 -0.09,-8.47 -5.96,-11.92 -2.2,-1.3 -5.2,-1.95 -8.55,-1.95 -8.47,0 -19.12,4.37 -23.27,14.61 -0.39,0.84 -0.62,1.77 -0.82,2.61 -2.36,9.77 5.03,17.68 10.88,22.34 5.93,4.74 13.43,11.82 11.9,18.15 -0.16,0.65 -0.39,1.21 -0.73,1.86 -2.04,3.81 -7.38,5.49 -12.59,5.49 -5.31,0 -14.26,-1.86 -12.72,-8.19 0.72,-2.98 3.82,-5.4 7.37,-5.87 0.83,-0.74 1.39,-1.49 1.54,-2.14 0.3,-1.21 -0.53,-2.42 -3.14,-2.42 -5.76,0 -15.21,5.59 -17.35,14.43 -1.65,6.79 2.46,11.73 10.64,13.31 1.96,0.37 4.15,0.56 6.38,0.56 8.75,0 18.97,-2.98 26.38,-10.15 3.76,-3.63 5.99,-7.44 6.89,-11.17 1.19,-4.93 0.02,-9.68 -2.72,-13.77 -5.46,-7.82 -20.54,-16.66 -20.39,-24.2 -0.02,-0.65 0.13,-1.3 0.27,-1.86 1.06,-4.38 5.35,-6.33 8.51,-6.33 3.63,0 5.11,2.33 5.39,5.03 0.28,2.69 -0.55,6.14 -1.12,8.46 1.26,0.56 2.69,0.84 4.08,0.84 2.61,0 5.16,-0.93 6.75,-2.88z"/>
  <path id="7" fill="black" fill-rule="nonzero" d="M386.19 56.68c-0.99,2.14 -2.76,4.47 -4.52,6.33 -2.1,2.14 -4.34,3.72 -5.83,3.72 -0.37,0 -0.63,-0.09 -0.95,-0.27 -0.54,-0.47 -0.33,-2.52 0.39,-5.49 0.68,-2.8 1.72,-6.33 2.88,-9.96 1.2,-3.82 1.9,-6.33 2.65,-9.41 0.65,-2.69 1.07,-4.83 0.97,-6.32 -0.31,-4.1 -4.39,-7.64 -9.04,-7.64 -1.68,0 -3.47,0.47 -5.23,1.59 -2.2,1.39 -5.03,5.39 -7.48,9.4 -2.35,3.91 -4.5,7.81 -5.42,9.68 0.91,-2.24 2.69,-6.89 4.14,-11.73 3.28,-3.54 6.54,-8.56 9.23,-13.12 1.77,-3.08 3.3,-6.33 4.06,-9.5 0.27,-1.12 0.43,-2.14 0.49,-3.16 0.29,-5.03 -1.97,-8.38 -4.87,-9.87 -1.08,-0.56 -2.13,-0.84 -3.33,-0.84 -2.7,0 -5.67,1.49 -7.62,4.56 -3.31,5.22 -7.28,18.9 -10.45,32.02 -3.61,14.89 -5.7,25.88 -6.06,28.48 -0.39,2.8 1.26,5.22 3.06,6.61 1.03,0.75 2.03,1.21 2.96,1.21 0.84,0 1.49,-0.37 1.69,-1.21 0.75,-3.07 4.87,-11.26 9.39,-19.17 4.82,-8.38 10.13,-16.48 12.08,-16.48 1.03,0 0.92,1.59 0.02,5.31 -0.54,2.23 -4.01,12.75 -4.94,16.57 -0.81,3.35 -1.27,6.42 -0.84,8.47 1.02,5.39 4.79,7.91 8.98,7.91 1.21,0 2.56,-0.19 3.79,-0.65 4.98,-1.77 9.48,-6.89 11.56,-11.27 0.23,-0.55 0.46,-1.11 0.59,-1.67 0.59,-2.42 -0.45,-3.91 -2.35,-4.1zm-28.45 -27.83c0.16,-0.65 1.4,-5.02 2.58,-9.12 1.02,-3.44 1.99,-6.7 2.5,-7.63 0.36,-0.74 1.12,-1.21 1.68,-1.21 0.84,0 1.66,0.84 1.21,2.7 -0.54,2.23 -1.8,4.75 -3.13,7.17 -1.97,3.53 -4.22,7.07 -4.84,8.09z"/>
  <path id="8" fill="black" fill-rule="nonzero" d="M420.51 65.99c-0.89,-0.56 -0.54,-3.54 0.41,-7.44 0.52,-2.15 1.17,-4.47 1.94,-6.89 2.09,-6.7 4.62,-13.69 5.16,-15.92 0.54,-2.23 -0.99,-4.37 -3,-5.68 -1.36,-0.93 -3.09,-1.49 -4.3,-1.49 -1.02,0 -1.85,0.38 -2.08,1.31l-0.55 1.49c-1.81,-3.26 -5.22,-4.94 -9.23,-4.94 -1.77,0 -3.69,0.28 -5.62,0.94 -8.91,2.97 -15.15,14.89 -17.53,24.75 -0.61,2.52 -0.92,4.94 -1.04,6.98 -0.37,9.59 5.32,14.15 9.88,14.15 0.66,0 1.33,-0.09 1.93,-0.28 7.48,-2.42 12.38,-14.61 14.25,-17.31 -0.21,0.84 -0.59,2.05 -0.93,3.44 -0.47,1.96 -0.87,4.38 -0.45,7.26 0.59,4.47 4.8,7.08 8.89,7.08 5.59,0 11.67,-5.12 14.1,-9.78 0.5,-0.93 0.8,-1.76 0.98,-2.51 0.78,-3.26 -1.39,-4.28 -2.41,-4.28 -0.62,1.4 -2.39,4.1 -4.49,6.24 -1.73,1.76 -3.46,3.16 -4.95,3.16 -0.37,0 -0.63,-0.09 -0.96,-0.28zm-22.73 -2.23c-1.49,0 -1.26,-3.63 -0.2,-8.01 0.7,-2.88 1.81,-6.33 3.23,-9.49 2.08,-4.75 4.74,-9.22 7.4,-11.36 1.5,-1.21 2.85,-1.77 3.87,-1.77 1.96,0 3.18,1.87 3.32,4.75 -2.22,4.94 -5.15,10.52 -8.07,15.27 -3.7,6.05 -7.22,10.61 -9.55,10.61z"/>
  <path id="9" fill="black" fill-rule="nonzero" d="M453.62 27.27c-2.32,1.49 -4.62,4.84 -5.63,9.03 -0.21,0.84 -0.34,1.77 -0.45,2.61 -0.76,0.83 -1.45,1.76 -2.28,2.88 0.67,-3.16 1.14,-5.86 1.06,-7.44 -0.12,-3.36 -1.53,-5.22 -3.24,-6.24 -1.07,-0.56 -2.22,-0.84 -3.24,-0.84 -1.12,0 -2.11,0.28 -2.69,0.75 0.21,0.28 -0.1,1.95 -0.73,4.56 -0.88,3.63 -2.47,9.02 -4.81,18.7 -1.69,6.99 -3.01,13.59 -2.52,16.57 0.54,3.17 3.11,5.21 6,5.21 1.02,0 2.21,-0.28 3.18,-0.83 0.32,-4.01 1.15,-7.82 2.07,-11.64 0.23,-0.93 0.43,-1.77 0.84,-2.7 2.28,-5.58 5.42,-9.3 7.71,-10.33 1.86,3.07 5.49,5.03 9.86,5.03 5.12,0 10.94,-2.89 12.18,-8.01 0.67,-2.79 -0.55,-4.65 -2.51,-4.65 -1.12,2.7 -4.38,5.4 -7.17,5.4 -0.28,0 -0.46,0 -0.72,-0.09 -3.64,-0.75 -4.01,-4.57 -4.01,-4.57 0,0 4.41,-4 5.1,-6.88 0.95,-3.91 -2.43,-7.26 -5.59,-7.26 -0.84,0 -1.65,0.28 -2.41,0.74z"/>
  <path id="10" fill="black" fill-rule="nonzero" d="M488.46 45.61c2.66,-1.77 6.33,-5.03 7.37,-9.31 0.33,-1.4 0.35,-2.98 0.01,-4.65 -0.85,-3.82 -5.46,-6.71 -11.04,-6.71 -4.65,0 -9.97,1.96 -14.63,6.99 -4.4,4.74 -7.58,11.35 -9.14,17.77 -1.53,6.33 -1.46,12.57 0.81,16.66 2.91,5.31 8.5,7.17 13.81,7.17 2.51,0 5.04,-0.47 7.06,-1.12 7.08,-2.32 15.08,-8.84 16.63,-15.26 0.66,-2.7 -0.41,-4.84 -2.36,-4.84 -0.19,0 -0.4,0.09 -0.58,0.09 -1.57,4.19 -4.75,8.1 -8.34,10.61 -2.71,1.96 -5.58,3.07 -8.1,3.07 -2.23,0 -4.24,-0.93 -5.6,-2.97 -1.91,-2.89 -1.93,-7.82 -0.78,-12.94 4.79,-0.19 10.2,-1.4 14.88,-4.56zm-3.47 -14.52c1.49,0 2.22,1.58 1.73,3.63 -0.72,2.98 -2.84,5.58 -5.44,7.07 -2.36,1.3 -4.1,1.96 -5.98,2.42 1.09,-2.98 2.4,-5.68 3.77,-7.91 1.82,-2.89 3.9,-4.93 5.92,-5.21z"/>
 </g>
</svg>
